<svg xmlns="http://www.w3.org/2000/svg" viewBox="0 0 900 520">
<rect width="900" height="520" rx="28" fill="#f7faff"/>
<rect x="26" y="26" width="848" height="468" rx="22" fill="#ffffff" stroke="#d8e1ef"/>
<rect x="26" y="26" width="848" height="70" rx="22" fill="#eef4ff"/>
<rect x="54" y="50" width="150" height="12" rx="6" fill="#2659be"/>
<rect x="54" y="70" width="220" height="7" rx="3.5" fill="#aab7c9"/>
<circle cx="818" cy="60" r="6" fill="#c5d2e5"/><circle cx="796" cy="60" r="6" fill="#c5d2e5"/>
<rect x="54" y="118" width="174" height="72" rx="14" fill="#fbfcff" stroke="#e0e7f1"/><text x="70" y="148" font-family="Arial,sans-serif" font-size="20" font-weight="700" fill="#172033">98K</text><text x="70" y="172" font-family="Arial,sans-serif" font-size="11" fill="#71809a">Orders</text><rect x="250" y="118" width="174" height="72" rx="14" fill="#fbfcff" stroke="#e0e7f1"/><text x="266" y="148" font-family="Arial,sans-serif" font-size="20" font-weight="700" fill="#172033">R$153</text><text x="266" y="172" font-family="Arial,sans-serif" font-size="11" fill="#71809a">Avg. Value</text><rect x="446" y="118" width="174" height="72" rx="14" fill="#fbfcff" stroke="#e0e7f1"/><text x="462" y="148" font-family="Arial,sans-serif" font-size="20" font-weight="700" fill="#172033">97%</text><text x="462" y="172" font-family="Arial,sans-serif" font-size="11" fill="#71809a">Delivered</text><rect x="642" y="118" width="174" height="72" rx="14" fill="#fbfcff" stroke="#e0e7f1"/><text x="658" y="148" font-family="Arial,sans-serif" font-size="20" font-weight="700" fill="#172033">4.8</text><text x="658" y="172" font-family="Arial,sans-serif" font-size="11" fill="#71809a">Score</text><text x="54" y="222" font-family="Arial,sans-serif" font-size="12" font-weight="700" fill="#536074">Skill demand vs. pay</text><line x1="70" y1="385" x2="430" y2="245" stroke="#2659be" stroke-width="4" stroke-linecap="round"/><circle cx="110" cy="360" r="9" fill="#a6bde5"/><circle cx="180" cy="335" r="11" fill="#7197d8"/><circle cx="255" cy="315" r="13" fill="#2659be"/><circle cx="330" cy="280" r="8" fill="#8eaae0"/><circle cx="405" cy="250" r="12" fill="#1a469f"/><rect x="500" y="245" width="310" height="145" rx="14" fill="#f7faff" stroke="#e0e7f1"/><text x="520" y="273" font-family="Arial,sans-serif" font-size="11" font-weight="700" fill="#536074">Regional work patterns</text><rect x="520" y="296" width="230" height="10" rx="5" fill="#dbe6f7"/><rect x="520" y="296" width="170" height="10" rx="5" fill="#2659be"/><rect x="520" y="324" width="230" height="10" rx="5" fill="#dbe6f7"/><rect x="520" y="324" width="130" height="10" rx="5" fill="#7197d8"/><rect x="520" y="352" width="230" height="10" rx="5" fill="#dbe6f7"/><rect x="520" y="352" width="92" height="10" rx="5" fill="#a6bde5"/><text x="54" y="452" font-family="Arial,sans-serif" font-size="13" font-weight="800" fill="#172033">GLOBAL FREELANCERS</text><text x="54" y="474" font-family="Arial,sans-serif" font-size="11" fill="#71809a">Income &amp; work patterns</text></svg>