<svg xmlns="http://www.w3.org/2000/svg" viewBox="0 0 900 520">
<rect width="900" height="520" rx="28" fill="#f7faff"/>
<rect x="26" y="26" width="848" height="468" rx="22" fill="#ffffff" stroke="#d8e1ef"/>
<rect x="26" y="26" width="848" height="70" rx="22" fill="#eef4ff"/>
<rect x="54" y="50" width="150" height="12" rx="6" fill="#2659be"/>
<rect x="54" y="70" width="220" height="7" rx="3.5" fill="#aab7c9"/>
<circle cx="818" cy="60" r="6" fill="#c5d2e5"/><circle cx="796" cy="60" r="6" fill="#c5d2e5"/>
<rect x="54" y="118" width="174" height="72" rx="14" fill="#fbfcff" stroke="#e0e7f1"/><text x="70" y="148" font-family="Arial,sans-serif" font-size="20" font-weight="700" fill="#172033">98K</text><text x="70" y="172" font-family="Arial,sans-serif" font-size="11" fill="#71809a">Orders</text><rect x="250" y="118" width="174" height="72" rx="14" fill="#fbfcff" stroke="#e0e7f1"/><text x="266" y="148" font-family="Arial,sans-serif" font-size="20" font-weight="700" fill="#172033">R$153</text><text x="266" y="172" font-family="Arial,sans-serif" font-size="11" fill="#71809a">Avg. Value</text><rect x="446" y="118" width="174" height="72" rx="14" fill="#fbfcff" stroke="#e0e7f1"/><text x="462" y="148" font-family="Arial,sans-serif" font-size="20" font-weight="700" fill="#172033">97%</text><text x="462" y="172" font-family="Arial,sans-serif" font-size="11" fill="#71809a">Delivered</text><rect x="642" y="118" width="174" height="72" rx="14" fill="#fbfcff" stroke="#e0e7f1"/><text x="658" y="148" font-family="Arial,sans-serif" font-size="20" font-weight="700" fill="#172033">4.8</text><text x="658" y="172" font-family="Arial,sans-serif" font-size="11" fill="#71809a">Score</text><text x="54" y="222" font-family="Arial,sans-serif" font-size="12" font-weight="700" fill="#536074">Customer value segments</text><rect x="60" y="250" width="48" height="130" rx="7" fill="#c7d8f4"/><rect x="125" y="285" width="48" height="95" rx="7" fill="#8eafe4"/><rect x="190" y="310" width="48" height="70" rx="7" fill="#2659be"/><rect x="255" y="340" width="48" height="40" rx="7" fill="#b4c9ea"/><polyline points="350,360 410,330 470,338 530,290 590,305 650,250" fill="none" stroke="#2659be" stroke-width="5" stroke-linecap="round"/><circle cx="650" cy="250" r="6" fill="#2659be"/><rect x="690" y="225" width="125" height="155" rx="14" fill="#f7faff" stroke="#e0e7f1"/><text x="708" y="251" font-family="Arial,sans-serif" font-size="11" font-weight="700" fill="#536074">Key drivers</text><rect x="708" y="273" width="82" height="8" rx="4" fill="#2659be"/><rect x="708" y="298" width="66" height="8" rx="4" fill="#7197d8"/><rect x="708" y="323" width="50" height="8" rx="4" fill="#a6bde5"/><text x="54" y="452" font-family="Arial,sans-serif" font-size="13" font-weight="800" fill="#172033">FOOD DELIVERY</text><text x="54" y="474" font-family="Arial,sans-serif" font-size="11" fill="#71809a">Customer value &amp; revenue</text></svg>